<?xml version="1.0" encoding="UTF-8"?>
<!DOCTYPE svg PUBLIC "-//W3C//DTD SVG 1.1//EN" "http://www.w3.org/Graphics/SVG/1.1/DTD/svg11.dtd">
<svg xmlns="http://www.w3.org/2000/svg" version="1.1" width="768px" height="658px" style="shape-rendering:geometricPrecision; text-rendering:geometricPrecision; image-rendering:optimizeQuality; fill-rule:evenodd; clip-rule:evenodd" xmlns:xlink="http://www.w3.org/1999/xlink">
<g><path style="opacity:0.98" fill="#d66523" d="M 172.5,6.5 C 265.501,6.33334 358.501,6.5 451.5,7C 478.176,65.1911 504.176,123.691 529.5,182.5C 529.167,183.5 528.5,184.167 527.5,184.5C 468.912,154.341 407.412,143.007 343,150.5C 340.098,152.211 337.098,152.544 334,151.5C 305.455,155.918 277.622,164.584 250.5,177.5C 249.5,177.167 248.833,176.5 248.5,175.5C 257.066,155.976 265.732,136.476 274.5,117C 238.8,116.96 203.133,116.294 167.5,115C 138.915,106.748 124.248,87.7478 123.5,58C 127.74,29.2613 144.073,12.0946 172.5,6.5 Z"/></g>
<g><path style="opacity:0.999" fill="#889cb4" d="M 375.5,172.5 C 377.698,173.165 380.031,173.832 382.5,174.5C 371.446,198.942 360.113,223.275 348.5,247.5C 348.522,225.458 348.522,203.625 348.5,182C 350.738,179.573 350.071,177.739 346.5,176.5C 344.584,177.248 342.584,177.248 340.5,176.5C 351.954,174.569 363.62,173.236 375.5,172.5 Z"/></g>
<g><path style="opacity:0.985" fill="#082a57" d="M 375.5,172.5 C 380.833,172.5 386.167,172.5 391.5,172.5C 389.302,173.165 386.969,173.832 384.5,174.5C 393.699,191.661 402.366,208.995 410.5,226.5C 420.637,245.107 429.97,264.107 438.5,283.5C 435.211,282.626 431.877,281.959 428.5,281.5C 427.329,280.655 425.995,279.989 424.5,279.5C 417.18,278.505 409.847,277.505 402.5,276.5C 390.03,276.602 377.364,276.602 364.5,276.5C 361.63,277.122 358.796,277.789 356,278.5C 352.956,277.679 350.123,278.346 347.5,280.5C 346.554,280.013 345.554,279.68 344.5,279.5C 341.72,280.348 338.886,281.348 336,282.5C 335.617,281.944 335.117,281.611 334.5,281.5C 338.971,270.086 343.638,258.753 348.5,247.5C 360.113,223.275 371.446,198.942 382.5,174.5C 380.031,173.832 377.698,173.165 375.5,172.5 Z"/></g>
<g><path style="opacity:1" fill="#768ca7" d="M 391.5,172.5 C 395.519,172.646 399.519,172.979 403.5,173.5C 403.611,174.117 403.944,174.617 404.5,175C 408.211,175.175 411.878,175.675 415.5,176.5C 414.624,177.251 413.624,177.751 412.5,178C 413.658,194.759 413.825,211.593 413,228.5C 412.583,227.244 411.75,226.577 410.5,226.5C 402.366,208.995 393.699,191.661 384.5,174.5C 386.969,173.832 389.302,173.165 391.5,172.5 Z"/></g>
<g><path style="opacity:0.999" fill="#6a819f" d="M 403.5,173.5 C 415.387,173.982 427.053,175.649 438.5,178.5C 440.094,179.983 441.76,181.483 443.5,183C 443.651,215.627 443.484,248.46 443,281.5C 442.487,282.527 441.987,283.527 441.5,284.5C 440.609,283.89 439.609,283.557 438.5,283.5C 429.97,264.107 420.637,245.107 410.5,226.5C 411.75,226.577 412.583,227.244 413,228.5C 413.825,211.593 413.658,194.759 412.5,178C 413.624,177.751 414.624,177.251 415.5,176.5C 411.878,175.675 408.211,175.175 404.5,175C 403.944,174.617 403.611,174.117 403.5,173.5 Z"/></g>
<g><path style="opacity:0.999" fill="#96a7be" d="M 340.5,176.5 C 342.584,177.248 344.584,177.248 346.5,176.5C 350.071,177.739 350.738,179.573 348.5,182C 348.522,203.625 348.522,225.458 348.5,247.5C 343.638,258.753 338.971,270.086 334.5,281.5C 333.077,282.449 331.577,283.449 330,284.5C 329.228,284.355 328.561,284.022 328,283.5C 322.1,285.585 316.6,287.585 311.5,289.5C 312.446,288.069 313.612,286.736 315,285.5C 315.667,252.5 315.667,219.5 315,186.5C 313.513,185.747 313.346,184.914 314.5,184C 307.293,184.259 300.126,186.092 293,189.5C 291.862,189.011 290.695,188.678 289.5,188.5C 305.908,182.481 322.908,178.481 340.5,176.5 Z"/></g>
<g><path style="opacity:0.998" fill="#617a98" d="M 438.5,178.5 C 446.996,179.374 455.329,181.041 463.5,183.5C 463.574,185.411 464.574,186.578 466.5,187C 464.676,221.28 463.843,255.78 464,290.5C 463.283,291.044 462.783,291.711 462.5,292.5C 462.565,292.938 462.399,293.272 462,293.5C 455.442,289.462 448.609,286.462 441.5,284.5C 441.987,283.527 442.487,282.527 443,281.5C 443.484,248.46 443.651,215.627 443.5,183C 441.76,181.483 440.094,179.983 438.5,178.5 Z"/></g>
<g><path style="opacity:1" fill="#a3b3c7" d="M 311.5,289.5 C 309.592,289.883 308.092,290.883 307,292.5C 305.251,291.701 303.918,292.368 303,294.5C 302.586,294.043 302.086,293.709 301.5,293.5C 296.76,296.538 292.093,298.871 287.5,300.5C 289.472,264.32 290.139,227.986 289.5,191.5C 286.052,191.108 282.886,191.775 280,193.5C 279.235,193.43 278.735,193.097 278.5,192.5C 281.8,190.358 285.467,189.025 289.5,188.5C 290.695,188.678 291.862,189.011 293,189.5C 300.126,186.092 307.293,184.259 314.5,184C 313.346,184.914 313.513,185.747 315,186.5C 315.667,219.5 315.667,252.5 315,285.5C 313.612,286.736 312.446,288.069 311.5,289.5 Z"/></g>
<g><path style="opacity:1" fill="#567090" d="M 463.5,183.5 C 473.86,186.396 483.86,190.062 493.5,194.5C 492.603,195.598 491.77,195.598 491,194.5C 490.833,213.5 490.667,232.5 490.5,251.5C 490.512,271.051 491.179,290.384 492.5,309.5C 486.658,306.126 481.325,302.626 476.5,299C 471.802,296.721 467.136,294.554 462.5,292.5C 462.783,291.711 463.283,291.044 464,290.5C 463.843,255.78 464.676,221.28 466.5,187C 464.574,186.578 463.574,185.411 463.5,183.5 Z"/></g>
<g><path style="opacity:1" fill="#4f6a8b" d="M 493.5,194.5 C 499.36,195.766 504.693,198.1 509.5,201.5C 509.189,202.478 508.522,203.145 507.5,203.5C 507.164,242.175 506.164,280.509 504.5,318.5C 500.431,315.409 496.431,312.409 492.5,309.5C 491.179,290.384 490.512,271.051 490.5,251.5C 490.667,232.5 490.833,213.5 491,194.5C 491.77,195.598 492.603,195.598 493.5,194.5 Z"/></g>
<g><path style="opacity:1" fill="#adbbce" d="M 287.5,300.5 C 276.619,307.704 266.286,315.704 256.5,324.5C 256.351,323.448 256.517,322.448 257,321.5C 259.292,320.21 261.292,318.543 263,316.5C 263.667,278.167 263.667,239.833 263,201.5C 262.586,201.043 262.086,200.709 261.5,200.5C 258.982,202.873 255.982,203.873 252.5,203.5C 260.776,199.07 269.442,195.403 278.5,192.5C 278.735,193.097 279.235,193.43 280,193.5C 282.886,191.775 286.052,191.108 289.5,191.5C 290.139,227.986 289.472,264.32 287.5,300.5 Z"/></g>
<g><path style="opacity:1" fill="#b6c3d4" d="M 256.5,324.5 C 252.177,330.155 247.51,335.488 242.5,340.5C 242.565,338.304 243.232,336.304 244.5,334.5C 245.5,293.172 245.833,251.839 245.5,210.5C 243.602,211.096 241.935,211.096 240.5,210.5C 244.136,207.677 248.136,205.344 252.5,203.5C 255.982,203.873 258.982,202.873 261.5,200.5C 262.086,200.709 262.586,201.043 263,201.5C 263.667,239.833 263.667,278.167 263,316.5C 261.292,318.543 259.292,320.21 257,321.5C 256.517,322.448 256.351,323.448 256.5,324.5 Z"/></g>
<g><path style="opacity:1" fill="#3b5a7e" d="M 537.5,216.5 C 539.754,217.124 541.421,218.457 542.5,220.5C 545.804,227.721 548.804,235.054 551.5,242.5C 551.17,316.571 551.503,390.571 552.5,464.5C 551.508,464.328 550.842,464.662 550.5,465.5C 545.415,465.393 540.415,464.726 535.5,463.5C 535.167,445.833 534.833,428.167 534.5,410.5C 534.519,392.221 535.186,374.054 536.5,356C 535.764,353.861 534.764,351.861 533.5,350C 534.33,307.904 534.83,265.738 535,223.5C 535.967,222.322 536.467,220.989 536.5,219.5C 535.833,218.833 535.167,218.167 534.5,217.5C 535.394,217.483 536.394,217.149 537.5,216.5 Z"/></g>
<g><path style="opacity:0.97" fill="#082a56" d="M 225.5,219.5 C 220.449,232.603 215.116,245.603 209.5,258.5C 203.656,270.196 198.322,282.196 193.5,294.5C 187.656,306.196 182.322,318.196 177.5,330.5C 170.264,345.98 163.264,361.647 156.5,377.5C 146.74,398.689 137.24,420.023 128,441.5C 127.303,443.584 126.136,445.251 124.5,446.5C 116.115,403.12 120.615,361.12 138,320.5C 157.676,278.655 186.842,244.988 225.5,219.5 Z"/></g>
<g><path style="opacity:1" fill="#c2cddd" d="M 240.5,210.5 C 241.935,211.096 243.602,211.096 245.5,210.5C 245.833,251.839 245.5,293.172 244.5,334.5C 243.232,336.304 242.565,338.304 242.5,340.5C 239.845,345.139 237.179,349.806 234.5,354.5C 233.711,354.783 233.044,355.283 232.5,356C 239.492,356.5 246.492,356.666 253.5,356.5C 246.018,357.492 238.352,357.825 230.5,357.5C 230.5,407.167 230.5,456.833 230.5,506.5C 225.833,517.167 221.167,527.833 216.5,538.5C 215.596,539.209 215.263,540.209 215.5,541.5C 217.833,541.5 220.167,541.5 222.5,541.5C 224.948,542.473 227.615,542.806 230.5,542.5C 230.833,558.847 230.499,575.18 229.5,591.5C 227.556,590.811 225.556,590.311 223.5,590C 222.167,589.333 222.167,588.667 223.5,588C 222.207,587.51 220.873,587.343 219.5,587.5C 219.167,587.5 218.833,587.5 218.5,587.5C 217.055,585.937 215.389,584.604 213.5,583.5C 212.234,582.91 210.901,582.41 209.5,582C 207.133,579.494 204.799,576.994 202.5,574.5C 206.514,575.607 210.181,577.273 213.5,579.5C 213.667,471.166 213.5,362.833 213,254.5C 212.051,256.093 210.885,257.426 209.5,258.5C 215.116,245.603 220.449,232.603 225.5,219.5C 230.029,215.734 235.029,212.734 240.5,210.5 Z"/></g>
<g><path style="opacity:0.97" fill="#082a56" d="M 542.5,220.5 C 608.282,264.367 643.282,326.033 647.5,405.5C 646.842,423.084 644.509,440.417 640.5,457.5C 639.751,456.469 639.085,455.302 638.5,454C 639.128,451.391 640.128,448.725 641.5,446C 632.933,426.804 624.266,407.637 615.5,388.5C 604.874,362.937 593.874,337.604 582.5,312.5C 579.191,302.556 574.857,293.222 569.5,284.5C 569.701,281.235 568.534,278.569 566,276.5C 561.813,264.734 556.979,253.4 551.5,242.5C 548.804,235.054 545.804,227.721 542.5,220.5 Z"/></g>
<g><path style="opacity:1" fill="#345379" d="M 551.5,242.5 C 556.979,253.4 561.813,264.734 566,276.5C 568.534,278.569 569.701,281.235 569.5,284.5C 569.5,344.5 569.5,404.5 569.5,464.5C 563.833,464.5 558.167,464.5 552.5,464.5C 551.503,390.571 551.17,316.571 551.5,242.5 Z"/></g>
<g><path style="opacity:1" fill="#cad5e3" d="M 202.5,574.5 C 197.88,571.216 193.546,567.55 189.5,563.5C 192.193,564.552 194.86,565.552 197.5,566.5C 197.667,474.499 197.5,382.499 197,290.5C 196.26,292.319 195.093,293.652 193.5,294.5C 198.322,282.196 203.656,270.196 209.5,258.5C 210.885,257.426 212.051,256.093 213,254.5C 213.5,362.833 213.667,471.166 213.5,579.5C 210.181,577.273 206.514,575.607 202.5,574.5 Z"/></g>
<g><path style="opacity:0.004" fill="#945d4c" d="M 424.5,279.5 C 425.995,279.989 427.329,280.655 428.5,281.5C 426.517,281.843 425.183,281.176 424.5,279.5 Z"/></g>
<g><path style="opacity:1" fill="#2d4d74" d="M 569.5,284.5 C 574.857,293.222 579.191,302.556 582.5,312.5C 583.482,362.81 583.815,413.143 583.5,463.5C 584.873,463.343 586.207,463.51 587.5,464C 588.598,464.77 588.598,465.603 587.5,466.5C 581.903,466.81 576.57,466.81 571.5,466.5C 564.687,465.509 557.687,465.175 550.5,465.5C 550.842,464.662 551.508,464.328 552.5,464.5C 558.167,464.5 563.833,464.5 569.5,464.5C 569.5,404.5 569.5,344.5 569.5,284.5 Z"/></g>
<g><path style="opacity:1" fill="#d0dbe8" d="M 189.5,563.5 C 187.312,560.819 184.646,558.652 181.5,557C 181.833,556.667 182.167,556.333 182.5,556C 178.544,552.555 175.21,548.722 172.5,544.5C 173.552,544.351 174.552,544.517 175.5,545C 176.982,546.983 178.649,548.816 180.5,550.5C 181.667,475.836 181.833,401.169 181,326.5C 180.26,328.319 179.093,329.652 177.5,330.5C 182.322,318.196 187.656,306.196 193.5,294.5C 195.093,293.652 196.26,292.319 197,290.5C 197.5,382.499 197.667,474.499 197.5,566.5C 194.86,565.552 192.193,564.552 189.5,563.5 Z"/></g>
<g><path style="opacity:1" fill="#26466e" d="M 582.5,312.5 C 593.874,337.604 604.874,362.937 615.5,388.5C 615.5,413.5 615.5,438.5 615.5,463.5C 622.467,464.221 629.467,464.721 636.5,465C 627.657,465.17 618.99,465.67 610.5,466.5C 602.495,466.977 594.828,466.977 587.5,466.5C 588.598,465.603 588.598,464.77 587.5,464C 586.207,463.51 584.873,463.343 583.5,463.5C 583.815,413.143 583.482,362.81 582.5,312.5 Z"/></g>
<g><path style="opacity:1" fill="#d9e2ee" d="M 172.5,544.5 C 170.5,542.5 168.5,540.5 166.5,538.5C 162.87,533.193 159.204,527.86 155.5,522.5C 156.708,523.234 158.041,523.567 159.5,523.5C 159.667,474.166 159.5,424.832 159,375.5C 158.583,376.756 157.75,377.423 156.5,377.5C 163.264,361.647 170.264,345.98 177.5,330.5C 179.093,329.652 180.26,328.319 181,326.5C 181.833,401.169 181.667,475.836 180.5,550.5C 178.649,548.816 176.982,546.983 175.5,545C 174.552,544.517 173.552,544.351 172.5,544.5 Z"/></g>
<g><path style="opacity:0.251" fill="#e9f0f9" d="M 234.5,354.5 C 333.833,354.5 433.167,354.5 532.5,354.5C 532.833,354.5 533.167,354.5 533.5,354.5C 467.5,355.167 401.5,355.833 335.5,356.5C 333.167,356.5 330.833,356.5 328.5,356.5C 322.167,356.5 315.833,356.5 309.5,356.5C 301.5,356.5 293.5,356.5 285.5,356.5C 274.833,356.5 264.167,356.5 253.5,356.5C 246.492,356.666 239.492,356.5 232.5,356C 233.044,355.283 233.711,354.783 234.5,354.5 Z"/></g>
<g><path style="opacity:0.565" fill="#bdcada" d="M 533.5,354.5 C 534.833,355.167 534.833,355.833 533.5,356.5C 524.833,356.5 516.167,356.5 507.5,356.5C 500.167,356.5 492.833,356.5 485.5,356.5C 469.167,356.5 452.833,356.5 436.5,356.5C 434.833,356.5 433.167,356.5 431.5,356.5C 421.5,356.5 411.5,356.5 401.5,356.5C 392.167,356.5 382.833,356.5 373.5,356.5C 366.5,356.5 359.5,356.5 352.5,356.5C 346.833,356.5 341.167,356.5 335.5,356.5C 401.5,355.833 467.5,355.167 533.5,354.5 Z"/></g>
<g><path style="opacity:1" fill="#adbbcf" d="M 285.5,356.5 C 293.5,356.5 301.5,356.5 309.5,356.5C 304.767,357.19 299.934,357.856 295,358.5C 293.249,357.826 291.583,357.493 290,357.5C 289.5,392.832 289.333,428.165 289.5,463.5C 288.209,463.263 287.209,463.596 286.5,464.5C 270.226,465.427 253.226,465.76 235.5,465.5C 243.021,464.736 250.688,464.069 258.5,463.5C 258.333,428.498 258.5,393.498 259,358.5C 267.932,357.846 276.765,357.179 285.5,356.5 Z"/></g>
<g><path style="opacity:1" fill="#bcc9d9" d="M 253.5,356.5 C 264.167,356.5 274.833,356.5 285.5,356.5C 276.765,357.179 267.932,357.846 259,358.5C 258.5,393.498 258.333,428.498 258.5,463.5C 250.688,464.069 243.021,464.736 235.5,465.5C 236.437,468.269 237.604,470.936 239,473.5C 239.499,477.821 239.666,482.154 239.5,486.5C 237.011,493.472 234.011,500.139 230.5,506.5C 230.5,456.833 230.5,407.167 230.5,357.5C 238.352,357.825 246.018,357.492 253.5,356.5 Z"/></g>
<g><path style="opacity:1" fill="#a1b2c6" d="M 309.5,356.5 C 315.833,356.5 322.167,356.5 328.5,356.5C 324.435,357.193 320.268,357.86 316,358.5C 315.5,393.498 315.333,428.498 315.5,463.5C 308.618,464.07 301.785,464.737 295,465.5C 292.083,465.026 289.25,464.693 286.5,464.5C 287.209,463.596 288.209,463.263 289.5,463.5C 289.333,428.165 289.5,392.832 290,357.5C 291.583,357.493 293.249,357.826 295,358.5C 299.934,357.856 304.767,357.19 309.5,356.5 Z"/></g>
<g><path style="opacity:1" fill="#97a8bf" d="M 328.5,356.5 C 330.833,356.5 333.167,356.5 335.5,356.5C 341.167,356.5 346.833,356.5 352.5,356.5C 349.038,357.482 345.371,357.815 341.5,357.5C 342.151,393.32 341.485,428.987 339.5,464.5C 341.291,465.17 342.958,465.837 344.5,466.5C 308.998,466.823 273.332,466.99 237.5,467C 240.3,470.775 242.966,474.608 245.5,478.5C 243.013,480.809 241.013,483.476 239.5,486.5C 239.666,482.154 239.499,477.821 239,473.5C 237.604,470.936 236.437,468.269 235.5,465.5C 253.226,465.76 270.226,465.427 286.5,464.5C 289.25,464.693 292.083,465.026 295,465.5C 301.785,464.737 308.618,464.07 315.5,463.5C 315.333,428.498 315.5,393.498 316,358.5C 320.268,357.86 324.435,357.193 328.5,356.5 Z"/></g>
<g><path style="opacity:1" fill="#8ca0b8" d="M 352.5,356.5 C 359.5,356.5 366.5,356.5 373.5,356.5C 369.688,357.324 365.688,357.824 361.5,358C 362.496,393.427 362.829,428.927 362.5,464.5C 357.381,463.897 352.715,464.564 348.5,466.5C 347.167,466.5 345.833,466.5 344.5,466.5C 342.958,465.837 341.291,465.17 339.5,464.5C 341.485,428.987 342.151,393.32 341.5,357.5C 345.371,357.815 349.038,357.482 352.5,356.5 Z"/></g>
<g><path style="opacity:1" fill="#8095af" d="M 373.5,356.5 C 382.833,356.5 392.167,356.5 401.5,356.5C 399.708,357.309 397.708,357.809 395.5,358C 396.827,375.782 397.493,393.782 397.5,412C 397.333,429.833 397.167,447.667 397,465.5C 396.667,465.167 396.333,464.833 396,464.5C 385.402,465.156 374.902,465.823 364.5,466.5C 359.167,466.5 353.833,466.5 348.5,466.5C 352.715,464.564 357.381,463.897 362.5,464.5C 362.829,428.927 362.496,393.427 361.5,358C 365.688,357.824 369.688,357.324 373.5,356.5 Z"/></g>
<g><path style="opacity:1" fill="#758ba7" d="M 401.5,356.5 C 411.5,356.5 421.5,356.5 431.5,356.5C 427.018,357.326 422.351,357.826 417.5,358C 418.167,358.333 418.833,358.667 419.5,359C 418.167,359.667 418.167,360.333 419.5,361C 416.833,361.667 416.833,362.333 419.5,363C 418.504,396.76 418.171,430.594 418.5,464.5C 416.143,464.337 413.81,464.503 411.5,465C 420.01,465.171 428.343,465.671 436.5,466.5C 412.5,466.5 388.5,466.5 364.5,466.5C 374.902,465.823 385.402,465.156 396,464.5C 396.333,464.833 396.667,465.167 397,465.5C 397.167,447.667 397.333,429.833 397.5,412C 397.493,393.782 396.827,375.782 395.5,358C 397.708,357.809 399.708,357.309 401.5,356.5 Z"/></g>
<g><path style="opacity:1" fill="#6e85a2" d="M 431.5,356.5 C 433.167,356.5 434.833,356.5 436.5,356.5C 435.391,357.29 434.058,357.79 432.5,358C 433.826,375.448 434.493,393.115 434.5,411C 434.333,428.5 434.167,446 434,463.5C 428.928,464.471 423.762,464.805 418.5,464.5C 418.171,430.594 418.504,396.76 419.5,363C 416.833,362.333 416.833,361.667 419.5,361C 418.167,360.333 418.167,359.667 419.5,359C 418.833,358.667 418.167,358.333 417.5,358C 422.351,357.826 427.018,357.326 431.5,356.5 Z"/></g>
<g><path style="opacity:1" fill="#647c9b" d="M 436.5,356.5 C 452.833,356.5 469.167,356.5 485.5,356.5C 478.687,357.491 471.687,357.825 464.5,357.5C 464.171,393.073 464.504,428.573 465.5,464C 465,464.5 464.5,465 464,465.5C 461,465.167 458,464.833 455,464.5C 449.4,465.146 443.9,465.813 438.5,466.5C 437.833,466.5 437.167,466.5 436.5,466.5C 428.343,465.671 420.01,465.171 411.5,465C 413.81,464.503 416.143,464.337 418.5,464.5C 423.762,464.805 428.928,464.471 434,463.5C 434.167,446 434.333,428.5 434.5,411C 434.493,393.115 433.826,375.448 432.5,358C 434.058,357.79 435.391,357.29 436.5,356.5 Z"/></g>
<g><path style="opacity:1" fill="#567191" d="M 485.5,356.5 C 492.833,356.5 500.167,356.5 507.5,356.5C 502.298,357.21 496.965,357.876 491.5,358.5C 490.167,393.5 490.167,428.5 491.5,463.5C 494.777,464.254 498.11,464.754 501.5,465C 493.323,465.171 485.323,465.671 477.5,466.5C 464.5,466.5 451.5,466.5 438.5,466.5C 443.9,465.813 449.4,465.146 455,464.5C 458,464.833 461,465.167 464,465.5C 464.5,465 465,464.5 465.5,464C 464.504,428.573 464.171,393.073 464.5,357.5C 471.687,357.825 478.687,357.491 485.5,356.5 Z"/></g>
<g><path style="opacity:1" fill="#4b678a" d="M 507.5,356.5 C 516.167,356.5 524.833,356.5 533.5,356.5C 527.69,357.49 521.69,357.823 515.5,357.5C 515.171,393.073 515.504,428.573 516.5,464C 514.5,464.333 512.5,464.667 510.5,465C 518.011,465.171 525.345,465.671 532.5,466.5C 514.167,466.5 495.833,466.5 477.5,466.5C 485.323,465.671 493.323,465.171 501.5,465C 498.11,464.754 494.777,464.254 491.5,463.5C 490.167,428.5 490.167,393.5 491.5,358.5C 496.965,357.876 502.298,357.21 507.5,356.5 Z"/></g>
<g><path style="opacity:0.992" fill="#436084" d="M 509.5,201.5 C 519.477,205.486 528.811,210.486 537.5,216.5C 536.394,217.149 535.394,217.483 534.5,217.5C 535.167,218.167 535.833,218.833 536.5,219.5C 536.467,220.989 535.967,222.322 535,223.5C 534.83,265.738 534.33,307.904 533.5,350C 534.764,351.861 535.764,353.861 536.5,356C 535.186,374.054 534.519,392.221 534.5,410.5C 534.833,428.167 535.167,445.833 535.5,463.5C 540.415,464.726 545.415,465.393 550.5,465.5C 557.687,465.175 564.687,465.509 571.5,466.5C 558.5,466.5 545.5,466.5 532.5,466.5C 525.345,465.671 518.011,465.171 510.5,465C 512.5,464.667 514.5,464.333 516.5,464C 515.504,428.573 515.171,393.073 515.5,357.5C 521.69,357.823 527.69,357.49 533.5,356.5C 534.833,355.833 534.833,355.167 533.5,354.5C 533.167,354.5 532.833,354.5 532.5,354.5C 530.287,350.347 527.62,346.514 524.5,343C 524.833,342.667 525.167,342.333 525.5,342C 518.606,333.947 511.606,326.113 504.5,318.5C 506.164,280.509 507.164,242.175 507.5,203.5C 508.522,203.145 509.189,202.478 509.5,201.5 Z"/></g>
<g><path style="opacity:1" fill="#e0e7f2" d="M 155.5,522.5 C 153.515,519.202 151.515,515.869 149.5,512.5C 149.573,510.973 148.906,509.973 147.5,509.5C 144.438,503.962 141.772,498.295 139.5,492.5C 138.519,489.193 137.519,485.86 136.5,482.5C 136.132,480.825 135.132,479.825 133.5,479.5C 130.731,473.429 128.731,467.095 127.5,460.5C 127.737,459.209 127.404,458.209 126.5,457.5C 124.95,454.158 124.283,450.491 124.5,446.5C 126.136,445.251 127.303,443.584 128,441.5C 137.24,420.023 146.74,398.689 156.5,377.5C 157.75,377.423 158.583,376.756 159,375.5C 159.5,424.832 159.667,474.166 159.5,523.5C 158.041,523.567 156.708,523.234 155.5,522.5 Z"/></g>
<g><path style="opacity:1" fill="#1e3c65" d="M 615.5,388.5 C 624.266,407.637 632.933,426.804 641.5,446C 640.128,448.725 639.128,451.391 638.5,454C 639.085,455.302 639.751,456.469 640.5,457.5C 639.798,460.44 638.798,463.273 637.5,466C 635.047,466.738 632.547,467.238 630,467.5C 623.408,467.587 616.908,467.253 610.5,466.5C 618.99,465.67 627.657,465.17 636.5,465C 629.467,464.721 622.467,464.221 615.5,463.5C 615.5,438.5 615.5,413.5 615.5,388.5 Z"/></g>
<g><path style="opacity:0.012" fill="#9b614e" d="M 126.5,457.5 C 127.404,458.209 127.737,459.209 127.5,460.5C 125.519,459.895 125.185,458.895 126.5,457.5 Z"/></g>
<g><path style="opacity:0.984" fill="#052956" d="M 245.5,478.5 C 268.149,508.678 298.149,527.511 335.5,535C 344.44,536.697 353.44,538.031 362.5,539C 428.256,542.093 492.589,534.26 555.5,515.5C 561.438,514.183 567.438,513.183 573.5,512.5C 582.472,511.653 591.472,511.32 600.5,511.5C 602.5,511.5 604.5,511.5 606.5,511.5C 607.167,511.833 607.833,512.167 608.5,512.5C 636.373,520.56 647.54,538.893 642,567.5C 635.008,584.166 623.341,595.5 607,601.5C 583.967,611.305 560.634,618.305 537,622.5C 525.249,625.228 513.749,627.894 502.5,630.5C 497.721,630.158 492.887,630.824 488,632.5C 487.127,632.265 486.293,631.931 485.5,631.5C 477.903,632.995 470.236,634.162 462.5,635C 443.812,636.567 425.145,638.067 406.5,639.5C 394.472,638.341 382.639,638.341 371,639.5C 357.075,638.391 343.075,636.391 329,633.5C 328.228,633.645 327.561,633.978 327,634.5C 322.778,632.267 318.278,630.934 313.5,630.5C 331.132,607.734 331.965,584.401 316,560.5C 310.109,554.094 303.275,549.094 295.5,545.5C 290.53,543.05 285.196,541.55 279.5,541C 258.143,541.158 237.143,540.325 216.5,538.5C 221.167,527.833 225.833,517.167 230.5,506.5C 234.011,500.139 237.011,493.472 239.5,486.5C 241.013,483.476 243.013,480.809 245.5,478.5 Z"/></g>
<g><path style="opacity:0.954" fill="#d66523" d="M 616.5,511.5 C 613.167,510.167 609.833,510.167 606.5,511.5C 604.5,511.5 602.5,511.5 600.5,511.5C 596.849,510.835 593.015,510.501 589,510.5C 583.568,510.281 578.401,510.948 573.5,512.5C 567.438,513.183 561.438,514.183 555.5,515.5C 551.382,505.235 547.216,494.569 543,483.5C 542.506,481.866 542.34,480.199 542.5,478.5C 581.506,478.167 620.506,478.5 659.5,479.5C 668.205,499.775 677.205,519.941 686.5,540C 695.167,540.333 703.833,540.667 712.5,541C 748.12,548.302 764.287,570.135 761,606.5C 753.93,632.911 736.93,647.911 710,651.5C 651.234,650.835 592.401,650.169 533.5,649.5C 552.322,643.955 571.322,638.455 590.5,633C 613.503,627.256 633.003,615.756 649,598.5C 664.796,579.719 667.796,559.386 658,537.5C 648.405,522.117 634.572,513.45 616.5,511.5 Z"/></g>
<g><path style="opacity:0.784" fill="#af9c9f" d="M 133.5,479.5 C 135.132,479.825 136.132,480.825 136.5,482.5C 137.519,485.86 138.519,489.193 139.5,492.5C 137.13,488.414 135.13,484.081 133.5,479.5 Z"/></g>
<g><path style="opacity:0.968" fill="#d66523" d="M 109.5,490.5 C 139.237,558.403 188.237,607.237 256.5,637C 266.855,640.573 276.855,644.74 286.5,649.5C 209.795,650.17 133.128,650.836 56.5,651.5C 22.6921,645.21 5.35882,625.043 4.5,591C 9.16461,562.335 25.8313,545.669 54.5,541C 65.1822,540.832 75.8489,540.332 86.5,539.5C 89.6884,532.289 93.0217,525.122 96.5,518C 95.9394,516.434 96.6061,515.101 98.5,514C 98.1667,513.667 97.8333,513.333 97.5,513C 101.402,505.359 105.402,497.859 109.5,490.5 Z"/></g>
<g><path style="opacity:1" fill="#503e43" d="M 600.5,511.5 C 591.472,511.32 582.472,511.653 573.5,512.5C 578.401,510.948 583.568,510.281 589,510.5C 593.015,510.501 596.849,510.835 600.5,511.5 Z"/></g>
<g><path style="opacity:0.012" fill="#83605a" d="M 606.5,511.5 C 609.833,510.167 613.167,510.167 616.5,511.5C 613.615,511.194 610.948,511.527 608.5,512.5C 607.833,512.167 607.167,511.833 606.5,511.5 Z"/></g>
<g><path style="opacity:0.004" fill="#a26148" d="M 147.5,509.5 C 148.906,509.973 149.573,510.973 149.5,512.5C 148.094,512.027 147.427,511.027 147.5,509.5 Z"/></g>
<g><path style="opacity:0.004" fill="#965d49" d="M 166.5,538.5 C 165.833,539.167 165.833,539.167 166.5,538.5 Z"/></g>
<g><path style="opacity:1" fill="#b9c5d6" d="M 222.5,541.5 C 236.186,541.305 249.853,541.638 263.5,542.5C 263.5,565.167 263.5,587.833 263.5,610.5C 256.669,606.422 249.335,603.422 241.5,601.5C 235.979,599.155 230.812,596.155 226,592.5C 223.402,592.047 221.236,590.38 219.5,587.5C 220.873,587.343 222.207,587.51 223.5,588C 222.167,588.667 222.167,589.333 223.5,590C 225.556,590.311 227.556,590.811 229.5,591.5C 230.499,575.18 230.833,558.847 230.5,542.5C 227.615,542.806 224.948,542.473 222.5,541.5 Z"/></g>
<g><path style="opacity:1" fill="#a9b8cc" d="M 216.5,538.5 C 237.143,540.325 258.143,541.158 279.5,541C 285.196,541.55 290.53,543.05 295.5,545.5C 295.616,570.942 295.949,596.109 296.5,621C 295.975,621.692 295.308,622.192 294.5,622.5C 286.897,621.322 279.73,618.988 273,615.5C 272.601,615.728 272.435,616.062 272.5,616.5C 269.266,616.071 266.266,615.071 263.5,613.5C 262.035,612.263 260.368,611.263 258.5,610.5C 251.805,609.178 246.138,606.178 241.5,601.5C 249.335,603.422 256.669,606.422 263.5,610.5C 263.5,587.833 263.5,565.167 263.5,542.5C 249.853,541.638 236.186,541.305 222.5,541.5C 220.167,541.5 217.833,541.5 215.5,541.5C 215.263,540.209 215.596,539.209 216.5,538.5 Z"/></g>
<g><path style="opacity:1" fill="#9daec3" d="M 295.5,545.5 C 303.275,549.094 310.109,554.094 316,560.5C 331.965,584.401 331.132,607.734 313.5,630.5C 311.914,629.587 310.414,629.587 309,630.5C 305.89,629.073 302.723,627.74 299.5,626.5C 297.299,625.434 294.965,624.767 292.5,624.5C 285.391,622.733 278.724,620.067 272.5,616.5C 272.435,616.062 272.601,615.728 273,615.5C 279.73,618.988 286.897,621.322 294.5,622.5C 295.308,622.192 295.975,621.692 296.5,621C 295.949,596.109 295.616,570.942 295.5,545.5 Z"/></g>
<g><path style="opacity:0.004" fill="#905e50" d="M 213.5,583.5 C 215.389,584.604 217.055,585.937 218.5,587.5C 215.796,587.33 214.129,585.997 213.5,583.5 Z"/></g>
<g><path style="opacity:0.004" fill="#925d4e" d="M 258.5,610.5 C 260.368,611.263 262.035,612.263 263.5,613.5C 263.565,613.938 263.399,614.272 263,614.5C 261.933,613.809 260.766,613.309 259.5,613C 258.748,612.329 258.414,611.496 258.5,610.5 Z"/></g>
<g><path style="opacity:0.004" fill="#975e4c" d="M 292.5,624.5 C 294.965,624.767 297.299,625.434 299.5,626.5C 299.44,627.043 299.107,627.376 298.5,627.5C 296.22,626.864 294.22,625.864 292.5,624.5 Z"/></g>
</svg>
